<svg width="23" height="23" viewBox="0 0 23 23" fill="none" xmlns="http://www.w3.org/2000/svg">
<g clip-path="url(#clip0)">
<path d="M22.0443 10.0196C21.9273 9.95085 21.7827 9.94908 21.6641 10.015L20.6091 10.6011L20.3167 0.3726C20.3109 0.165073 20.1409 -9.57917e-05 19.9333 4.16817e-08H17.25C17.0424 -9.57917e-05 16.8725 0.165073 16.8667 0.3726L16.5094 12.88L15.3333 13.5317V10.35C15.3332 10.1383 15.1615 9.96676 14.9498 9.96686C14.8848 9.96691 14.8209 9.98344 14.7641 10.015L8.43333 13.5317V10.35C8.43323 10.1383 8.2615 9.96676 8.0498 9.96686C7.98483 9.96691 7.92091 9.98344 7.86408 10.015L0.964079 13.8483C0.842323 13.9158 0.766711 14.0441 0.766663 14.1833V22.6167C0.766663 22.8284 0.9383 23 1.15 23H21.85C22.0617 23 22.2333 22.8284 22.2333 22.6167V10.35C22.2333 10.2142 22.1615 10.0884 22.0443 10.0196ZM17.6226 0.766667H19.5607L19.583 1.53333H17.6007L17.6226 0.766667ZM17.5785 2.3H19.6048L19.854 11.0204L17.2883 12.4453L17.5785 2.3ZM11.1167 22.2333H8.81666V20.3167H11.1167V22.2333ZM14.1833 22.2333H11.8833V20.3167H14.1833V22.2333ZM21.4667 22.2333H14.95V19.9333C14.95 19.7216 14.7784 19.55 14.5667 19.55H8.43333C8.22163 19.55 8.05 19.7216 8.05 19.9333V22.2333H1.53333V14.4091L7.66666 11.0017V14.1833C7.66676 14.395 7.83849 14.5666 8.05019 14.5665C8.11516 14.5664 8.17908 14.5499 8.23591 14.5184L14.5667 11.0017V14.1833C14.5668 14.395 14.7385 14.5666 14.9502 14.5665C15.0152 14.5664 15.0791 14.5499 15.1359 14.5184L18.7511 12.5101L20.4317 11.5767L21.4667 11.0017V22.2333Z" fill="black"/>
<path d="M6.13335 15.3333H3.06668C2.85499 15.3333 2.68335 15.505 2.68335 15.7166V17.25C2.68335 17.4617 2.85499 17.6333 3.06668 17.6333H6.13335C6.34505 17.6333 6.51668 17.4617 6.51668 17.25V15.7166C6.51668 15.505 6.34505 15.3333 6.13335 15.3333ZM5.75002 16.8666H3.45002V16.1H5.75002V16.8666Z" fill="black"/>
<path d="M13.0333 15.3333H9.96665C9.75495 15.3333 9.58331 15.505 9.58331 15.7166V17.25C9.58331 17.4617 9.75495 17.6333 9.96665 17.6333H13.0333C13.245 17.6333 13.4166 17.4617 13.4166 17.25V15.7166C13.4166 15.505 13.245 15.3333 13.0333 15.3333ZM12.65 16.8666H10.35V16.1H12.65V16.8666Z" fill="black"/>
<path d="M19.9333 15.3333H16.8667C16.655 15.3333 16.4833 15.505 16.4833 15.7166V17.25C16.4833 17.4617 16.655 17.6333 16.8667 17.6333H19.9333C20.145 17.6333 20.3167 17.4617 20.3167 17.25V15.7166C20.3167 15.505 20.145 15.3333 19.9333 15.3333ZM19.55 16.8666H17.25V16.1H19.55V16.8666Z" fill="black"/>
</g>
<defs>
<clipPath id="clip0">
<rect width="23" height="23" fill="white"/>
</clipPath>
</defs>
</svg>
