<svg id="svg" xmlns="http://www.w3.org/2000/svg" xmlns:xlink="http://www.w3.org/1999/xlink" width="400" height="191.35446685878964" viewBox="0, 0, 400,191.35446685878964"><g id="svgg"><path id="path0" d="M75.504 35.753 C 74.236 36.285,63.343 43.929,51.297 52.739 L 29.395 68.758 29.586 74.202 C 29.982 85.480,26.194 85.783,86.610 69.639 C 142.190 54.787,140.170 55.630,138.263 48.058 C 136.407 40.683,137.278 40.972,108.357 38.153 C 94.092 36.762,81.383 35.436,80.115 35.205 C 78.847 34.974,76.772 35.221,75.504 35.753 M119.729 66.489 L 113.234 68.195 117.164 82.801 C 122.681 103.303,123.036 101.411,113.160 104.127 C 102.980 106.925,104.048 108.102,98.984 88.516 L 95.127 73.597 91.718 74.279 C 83.384 75.946,79.661 77.368,80.133 78.706 C 81.625 82.936,88.599 110.056,88.277 110.378 C 86.835 111.820,71.051 115.309,70.440 114.320 C 70.041 113.675,67.961 106.363,65.817 98.072 C 62.851 86.599,61.477 82.999,60.066 83.004 C 58.452 83.009,51.541 84.599,47.699 85.849 C 46.836 86.129,47.886 91.754,50.861 102.789 C 56.078 122.139,55.698 119.885,53.743 119.885 C 50.122 119.885,49.161 123.073,50.872 129.418 C 52.857 136.784,46.835 137.565,101.862 122.802 C 153.404 108.973,148.008 111.195,146.322 104.498 C 144.799 98.453,142.799 96.296,139.510 97.156 C 136.968 97.821,137.482 99.147,131.893 77.522 C 130.050 70.389,128.020 64.605,127.383 64.668 C 126.746 64.731,123.302 65.550,119.729 66.489 M171.114 74.112 C 170.800 74.931,170.686 83.620,170.862 93.420 L 171.182 111.239 174.929 111.600 C 179.280 112.020,180.980 109.145,180.980 101.366 C 180.980 93.760,185.269 94.982,191.354 104.323 C 195.415 110.556,196.771 111.816,199.418 111.816 C 205.500 111.816,205.983 109.065,201.173 101.820 C 196.913 95.403,196.884 95.286,199.156 93.477 C 205.968 88.052,205.187 77.399,197.727 74.000 C 193.462 72.056,171.868 72.148,171.114 74.112 M210.307 74.112 C 209.993 74.931,209.879 83.620,210.055 93.420 L 210.375 111.239 224.576 111.564 L 238.777 111.888 238.409 108.682 C 238.045 105.517,237.926 105.471,229.107 105.139 L 220.173 104.802 220.173 100.240 L 220.173 95.677 228.202 95.677 C 234.684 95.677,236.430 95.289,237.268 93.660 C 239.299 89.711,237.642 88.761,228.722 88.761 L 220.173 88.761 220.173 84.198 L 220.173 79.636 229.107 79.299 C 237.900 78.968,238.046 78.913,238.405 75.793 L 238.770 72.622 224.824 72.622 C 214.489 72.622,210.731 73.008,210.307 74.112 M252.469 74.757 C 233.387 84.990,242.135 111.846,264.535 111.799 C 277.239 111.772,278.386 110.768,278.386 99.678 L 278.386 90.490 270.420 90.145 C 261.916 89.776,259.749 90.933,261.792 94.751 C 262.481 96.037,264.209 96.830,266.323 96.830 C 269.460 96.830,269.741 97.161,269.741 100.865 C 269.741 104.884,269.721 104.899,264.501 104.899 C 256.605 104.899,253.602 101.406,253.602 92.219 C 253.602 80.860,260.262 76.574,270.422 81.395 C 275.183 83.654,277.810 82.849,277.810 79.130 C 277.810 73.101,260.974 70.195,252.469 74.757 M280.806 74.468 C 279.572 77.684,282.312 79.539,288.293 79.539 L 293.883 79.539 294.204 95.389 L 294.524 111.239 297.764 111.611 C 303.703 112.292,304.323 110.670,304.323 94.444 L 304.323 79.659 310.375 79.311 C 315.969 78.989,316.427 78.744,316.427 76.081 L 316.427 73.199 298.982 72.881 C 283.641 72.602,281.449 72.794,280.806 74.468 M320.538 74.785 C 319.843 76.083,319.308 83.785,319.308 92.499 C 319.308 109.862,320.111 112.263,325.705 111.626 L 329.107 111.239 329.107 92.219 L 329.107 73.199 325.437 72.843 C 322.720 72.580,321.448 73.084,320.538 74.785 M344.613 75.220 C 333.242 82.883,333.242 101.555,344.613 109.218 C 353.604 115.277,375.605 109.889,369.908 103.024 C 368.222 100.993,365.438 101.063,362.604 103.207 C 355.215 108.795,346.974 103.002,346.974 92.219 C 346.974 81.436,355.215 75.643,362.604 81.231 C 365.438 83.375,368.222 83.445,369.908 81.414 C 375.605 74.549,353.604 69.161,344.613 75.220 M191.837 80.239 C 194.966 81.439,194.166 87.473,190.703 88.789 C 183.176 91.651,179.827 90.400,179.827 84.726 L 179.827 79.539 184.920 79.539 C 187.721 79.539,190.834 79.854,191.837 80.239 M100.384 128.932 C 45.825 143.677,47.153 143.096,49.689 151.114 C 51.901 158.105,49.474 158.447,106.578 143.079 C 161.576 128.278,160.302 128.829,157.804 120.932 C 155.556 113.828,157.035 113.622,100.384 128.932 " stroke="none" fill="#ffffff" fill-rule="evenodd"></path></g></svg>